<?xml version="1.0" encoding="UTF-8" standalone="no"?><!DOCTYPE svg PUBLIC "-//W3C//DTD SVG 1.1//EN" "http://www.w3.org/Graphics/SVG/1.1/DTD/svg11.dtd"><svg width="100%" height="100%" viewBox="0 0 100 154" version="1.1" xmlns="http://www.w3.org/2000/svg" xmlns:xlink="http://www.w3.org/1999/xlink" xml:space="preserve" xmlns:serif="http://www.serif.com/" style="fill-rule:evenodd;clip-rule:evenodd;stroke-linejoin:round;stroke-miterlimit:1.41421;"><g><path d="M46.83,2.618c0.001,-0.009 0.001,-0.02 0.001,-0.002c0.405,-1.37 1.216,-2.616 2.717,-2.616c1.501,0 2.314,1.243 2.717,2.627c0,-0.017 0.001,-0.007 0.001,0.001c9.793,33.261 39.925,64.319 39.925,85.09c0,23.552 -19.095,42.642 -42.644,42.642c-23.551,0 -42.642,-19.09 -42.642,-42.642c0,-20.773 30.135,-51.835 39.925,-85.1Zm2.716,22.842l0.08,0.002l0.102,0.005l0.101,0.008l0.1,0.013l0.099,0.016l0.097,0.02l0.096,0.023l0.095,0.027l0.093,0.03l0.091,0.034l0.09,0.037l0.089,0.039l0.086,0.043l0.085,0.047l0.065,0.037l0.081,0.052l0.079,0.054l0.078,0.057l0.075,0.059l0.073,0.063l0.07,0.064l0.068,0.067l0.066,0.07l0.063,0.072l0.061,0.074l0.058,0.076l0.031,0.045c0.12,0.149 0.214,0.316 0.276,0.502l0.026,0.066l0.024,0.065l0.03,0.09l0.014,0.045l0.013,0.046c0.004,0.015 0.008,0.029 0.012,0.044c7.021,20.87 24.965,40.213 24.965,53.321c0,15.475 -12.327,28.019 -27.531,28.019c-15.203,0 -27.533,-12.544 -27.533,-28.019c0,-13.103 17.932,-32.434 24.959,-53.294c0,0 0.004,-0.016 0.004,-0.016l0.002,-0.008l0,-0.002l0.001,-0.002c0.002,-0.008 0.004,-0.015 0.006,-0.023l0,-0.001l0.001,-0.003l0.002,-0.008l0.004,-0.015l0,-0.001l0,0c0.003,-0.008 0.005,-0.015 0.007,-0.023l0.001,-0.003l0,-0.002c0.003,-0.007 0.005,-0.015 0.007,-0.022l0,-0.002l0.001,-0.002l0.003,-0.009l0.004,-0.014l0,0l0,-0.001c0.003,-0.007 0.005,-0.015 0.008,-0.023l0,-0.002l0.001,-0.002c0.002,-0.008 0.005,-0.015 0.007,-0.023l0.001,-0.001l0.001,-0.002l0.003,-0.009l0.004,-0.014l0,0l0.001,-0.001c0.002,-0.007 0.005,-0.015 0.008,-0.023l0,-0.002l0.001,-0.001c0.003,-0.008 0.005,-0.016 0.008,-0.023l0.001,-0.001l0,-0.001c0.006,-0.016 0.012,-0.032 0.018,-0.048l0.001,-0.001l0,-0.001c0.003,-0.008 0.006,-0.016 0.009,-0.024l0.001,0l0,0c0.006,-0.017 0.013,-0.033 0.02,-0.049c0.075,-0.227 0.195,-0.424 0.351,-0.594c0.005,-0.006 0.01,-0.013 0.016,-0.019l0.001,-0.001l0.001,-0.002c0.009,-0.011 0.018,-0.023 0.028,-0.034l0.001,-0.001l0.001,-0.002c0.009,-0.011 0.019,-0.022 0.028,-0.034l0.001,-0.001l0.001,-0.001l0.006,-0.006l0.009,-0.01l0,-0.001l0,0c0.005,-0.005 0.01,-0.011 0.015,-0.016l0.001,-0.001l0.001,-0.002l0.005,-0.006l0.009,-0.01l0.001,0l0,0c0.005,-0.006 0.01,-0.011 0.015,-0.017l0.001,-0.001l0.001,-0.001l0.005,-0.006l0.009,-0.009l0.001,-0.001l0,0c0.005,-0.006 0.01,-0.011 0.015,-0.016l0.001,-0.001l0.002,-0.002l0.005,-0.005l0.009,-0.01l0.001,0l0,-0.001c0.005,-0.005 0.01,-0.01 0.015,-0.015l0.001,-0.001l0.002,-0.002l0.006,-0.005l0.008,-0.009l0.001,-0.001l0,0c0.006,-0.006 0.011,-0.011 0.016,-0.016l0.001,-0.001l0.002,-0.001l0.006,-0.006l0.008,-0.008l0.001,-0.001l0.001,-0.001c0.005,-0.005 0.01,-0.01 0.015,-0.015l0.001,-0.001l0.002,-0.001l0.006,-0.006l0.009,-0.008l0.001,-0.001l0,0c0.006,-0.005 0.011,-0.01 0.016,-0.015l0.001,-0.001l0.002,-0.001l0.006,-0.006l0.009,-0.007l0.001,-0.002l0.001,0c0.005,-0.005 0.01,-0.01 0.016,-0.014l0.001,-0.001l0.002,-0.002l0.006,-0.005l0.009,-0.008l0.001,-0.001l0.001,0c0.005,-0.005 0.01,-0.01 0.016,-0.014l0.001,-0.001l0.002,-0.002l0.006,-0.005l0.009,-0.007l0.001,-0.002l0.001,0c0.006,-0.005 0.011,-0.009 0.017,-0.014l0.001,-0.001l0.002,-0.001l0.006,-0.006l0.009,-0.006l0.001,-0.002l0.001,0c0.006,-0.005 0.011,-0.009 0.017,-0.013l0.001,-0.001l0.002,-0.002l0.007,-0.005l0.008,-0.007l0.002,-0.001l0.001,-0.001c0.005,-0.004 0.011,-0.008 0.017,-0.012l0.001,-0.001l0.002,-0.002l0.007,-0.005l0.008,-0.006l0.002,-0.002l0.001,0c0.005,-0.004 0.011,-0.009 0.017,-0.013l0.001,-0.001l0.002,-0.001l0.007,-0.005l0.008,-0.006l0.002,-0.002l0.001,0c0.006,-0.004 0.012,-0.009 0.018,-0.013l0.001,0l0.002,-0.002l0.007,-0.005l0.008,-0.006l0.002,-0.001l0.001,-0.001c0.006,-0.004 0.012,-0.008 0.018,-0.012l0.001,0l0.002,-0.002l0.008,-0.005l0.008,-0.005l0.002,-0.002l0.001,0c0.006,-0.004 0.012,-0.008 0.018,-0.012l0.001,-0.001l0.002,-0.001l0.008,-0.005l0.008,-0.005l0.002,-0.002l0.001,0c0.006,-0.004 0.012,-0.008 0.018,-0.012l0.001,0l0.003,-0.002l0.007,-0.005l0.008,-0.004l0.003,-0.002l0.001,-0.001c0.006,-0.003 0.012,-0.007 0.018,-0.011l0.001,0l0.002,-0.002l0.008,-0.004l0.008,-0.005l0.003,-0.001l0.001,-0.001c0.006,-0.004 0.012,-0.007 0.018,-0.011l0.001,0l0.003,-0.002l0.008,-0.004l0.008,-0.005l0.002,-0.001l0.001,-0.001c0.007,-0.003 0.013,-0.007 0.019,-0.01l0.001,-0.001l0.002,-0.001l0.009,-0.005l0.008,-0.004l0.002,-0.001l0.002,-0.001c0.006,-0.003 0.012,-0.007 0.018,-0.01l0.001,-0.001l0.003,-0.001l0.008,-0.004l0.008,-0.004l0.003,-0.002l0.001,0c0.006,-0.004 0.013,-0.007 0.019,-0.01l0.001,0l0.002,-0.002l0.009,-0.004l0.008,-0.004l0.002,-0.001l0.002,-0.001c0.006,-0.003 0.013,-0.006 0.019,-0.009l0.001,-0.001l0.003,-0.001l0.009,-0.004l0.007,-0.004l0.003,-0.001l0.001,-0.001c0.007,-0.003 0.013,-0.006 0.02,-0.009l0.001,0l0.002,-0.001l0.009,-0.005l0.008,-0.003l0.003,-0.001l0.001,-0.001c0.007,-0.003 0.013,-0.006 0.02,-0.008l0.001,-0.001l0.002,-0.001l0.01,-0.004l0.007,-0.003l0.003,-0.001l0.001,-0.001c0.007,-0.003 0.013,-0.006 0.02,-0.008l0.001,-0.001l0.002,-0.001l0.01,-0.004l0.007,-0.003l0.003,-0.001l0.002,-0.001c0.007,-0.002 0.013,-0.005 0.02,-0.007l0.001,-0.001l0.002,-0.001l0.01,-0.004l0.007,-0.002l0.003,-0.002l0.002,0c0.007,-0.003 0.013,-0.005 0.02,-0.008l0.001,0l0.002,-0.001l0.011,-0.004l0.007,-0.002l0.003,-0.001l0.002,-0.001c0.006,-0.003 0.013,-0.005 0.02,-0.007l0.001,-0.001l0.002,0l0.011,-0.004l0.007,-0.003l0.002,-0.001l0.002,0c0.007,-0.002 0.014,-0.005 0.021,-0.007l0.001,0l0.002,-0.001l0.011,-0.004l0.007,-0.002l0.003,-0.001l0.002,0c0.006,-0.003 0.013,-0.005 0.02,-0.007l0.001,0l0.002,-0.001l0.011,-0.003l0.007,-0.002l0.003,-0.001l0.002,-0.001c0.007,-0.002 0.014,-0.004 0.021,-0.006l0.001,0l0.002,-0.001l0.011,-0.003l0.007,-0.002l0.003,-0.001l0.002,0c0.007,-0.002 0.014,-0.004 0.021,-0.006l0.001,0l0.002,-0.001l0.012,-0.003l0.006,-0.002l0.003,-0.001l0.002,0c0.007,-0.002 0.014,-0.004 0.021,-0.005l0.001,-0.001l0.002,0l0.012,-0.003l0.007,-0.002l0.003,-0.001l0.002,0c0.007,-0.002 0.014,-0.003 0.021,-0.005l0.001,0l0.002,-0.001l0.012,-0.002l0.007,-0.002l0.003,-0.001l0.002,0c0.007,-0.002 0.014,-0.003 0.021,-0.005l0.001,0l0.002,0l0.013,-0.003l0.006,-0.001l0.003,-0.001l0.002,0c0.007,-0.002 0.015,-0.003 0.022,-0.004l0,0l0.002,-0.001l0.013,-0.002l0.007,-0.001l0.003,-0.001l0.002,0c0.007,-0.002 0.014,-0.003 0.021,-0.004l0.001,0l0.002,-0.001l0.013,-0.002l0.006,-0.001l0.003,0l0.003,-0.001c0.007,-0.001 0.014,-0.002 0.022,-0.003l0,0l0.002,-0.001l0.013,-0.002l0.007,0l0.003,-0.001l0.002,0c0.007,-0.001 0.015,-0.002 0.022,-0.003l0,0l0.002,-0.001l0.014,-0.001l0.006,-0.001l0.003,0l0.003,-0.001c0.007,-0.001 0.014,-0.002 0.022,-0.002l0,0l0.001,-0.001l0.015,-0.001l0.006,-0.001l0.003,0l0.002,0c0.008,-0.001 0.015,-0.002 0.023,-0.003l0,0l0.001,0l0.015,-0.001l0.006,-0.001l0.003,0l0.002,0c0.008,-0.001 0.015,-0.001 0.023,-0.002l0,0l0.001,0l0.015,-0.001l0.006,-0.001l0.003,0l0.003,0c0.007,0 0.015,-0.001 0.022,-0.001l0,0l0.001,0l0.016,-0.001l0.006,0l0.003,-0.001l0.002,0c0.008,0 0.015,0 0.023,-0.001l0,0l0.001,0l0.016,0l0.006,0l0.002,-0.001l0.003,0c0.008,0 0.015,0 0.023,0l0,0l0,0l0.017,0l0.006,0l0.002,-0.001l0.003,0l0.006,0l0.017,0Zm-2.582,2.057l-0.001,0.004l0.001,-0.006l0,0.002Zm0.004,-0.019l-0.001,0.004l0.002,-0.005l-0.001,0.001Zm5.149,-0.026l0.001,0.001l0,-0.001l-0.001,0Zm-0.133,-0.4l0.001,0.002l-0.001,-0.001l0,-0.001Zm-0.02,-0.045l0.001,0.003l0,-0.001l-0.001,-0.002Zm-4.836,-0.001l0,0.001l0,-0.001l0,0Zm4.816,-0.043l0.001,0.003l-0.001,-0.001l0,-0.002Zm-4.796,0l0,0l0.001,-0.001l-0.001,0.001Zm4.775,-0.044l0.001,0.003l-0.001,-0.001l0,-0.002Zm-4.754,0l0,0.001l0.001,-0.001l-0.001,0Zm4.732,-0.043l0.001,0.003l0,-0.001l-0.001,-0.002Zm-4.71,0.001l0,0l0,-0.001l0,0.001Zm4.687,-0.044l0.002,0.003l-0.001,-0.001l-0.001,-0.002Zm-4.665,0.001l0,0.001l0.001,-0.001l-0.001,0Zm4.642,-0.043l0.002,0.003l-0.001,-0.002l-0.001,-0.001Zm-4.618,0.001l-0.001,0.001l0.001,-0.001l0,0Zm4.594,-0.043l0.002,0.003l-0.001,-0.001l-0.001,-0.002Zm-4.571,0.002l0,0l0.001,-0.001l-0.001,0.001Zm4.546,-0.043l0.002,0.003l-0.001,-0.002l-0.001,-0.001Zm-4.521,0.002l-0.001,0l0.001,-0.001l0,0.001Zm4.495,-0.043l0.002,0.003l-0.001,-0.002l-0.001,-0.001Zm-4.47,0.002l0,0.001l0.001,-0.002l-0.001,0.001Zm0.026,-0.04l0,0.001l0.001,-0.002l-0.001,0.001Zm4.418,-0.003l0.002,0.004l-0.001,-0.002l-0.001,-0.002Zm-4.391,-0.036l-0.001,0l0.002,-0.001l-0.001,0.001Zm4.364,-0.003l0.002,0.003l-0.001,-0.002l-0.001,-0.001Zm-4.337,-0.036l0,0l0.001,-0.002l-0.001,0.002Zm0.028,-0.039l0,0.001l0.001,-0.002l-0.001,0.001Zm0.029,-0.038l-0.001,0.001l0.002,-0.002l-0.001,0.001Zm2.489,-21.084c-0.13,0.019 -0.259,0.028 -0.388,0.028c0.132,0 0.261,-0.009 0.388,-0.028Zm-0.787,-0.001c0.13,0.019 0.264,0.029 0.399,0.029c-0.132,0 -0.266,-0.01 -0.399,-0.029Zm3.117,-2.781l-0.001,-0.001c0.001,0.014 0.001,0.008 0.001,0.001Zm-5.436,-0.01c0,0.008 0,0.014 0.001,-0.002l-0.001,0.002Z" style="fill:#00faab;"/><path d="M97.564,110.686c2.247,0.487 1.442,2.287 1.155,3.62c-4.714,20.715 -23.998,37.161 -45.298,38.873c-23.823,1.915 -48.083,-15.189 -53.323,-38.873c-0.578,-2.612 1.518,-5.987 3.489,-1.42c8.021,18.027 28.873,29.38 49.295,28.011c18.176,-1.219 35.988,-12.314 42.82,-29.139c0,0 0.414,-1.169 1.862,-1.072Z" style="fill:#272636;"/></g></svg>