<?xml version="1.0" encoding="UTF-8" standalone="no"?>
<!DOCTYPE svg PUBLIC "-//W3C//DTD SVG 1.1//EN" "http://www.w3.org/Graphics/SVG/1.1/DTD/svg11.dtd">
<svg width="100%" height="100%" viewBox="0 0 892 279" version="1.1" xmlns="http://www.w3.org/2000/svg" xmlns:xlink="http://www.w3.org/1999/xlink" xml:space="preserve" xmlns:serif="http://www.serif.com/" style="fill-rule:evenodd;clip-rule:evenodd;stroke-linejoin:round;stroke-miterlimit:1.41421;">
    <g transform="matrix(1.5,0,0,1.5,0,0)">
        <g id="Artboard1" transform="matrix(1,0,0,1,-2.79687,-75.55)">
            <rect x="2.797" y="75.55" width="594.406" height="185.601" style="fill:none;"/>
            <g transform="matrix(1.38362,0,0,1.38362,10.8834,77.4501)">
                <g transform="matrix(0.24,0,0,0.24,0,0)">
                    <path d="M472.396,356.2L396.246,356.2L394.651,355.883C393.482,355.101 392.968,355.007 392.396,353.628C392.189,353.127 392.185,352.565 392.079,352.033L392.079,177.396L284.463,177.396L282.868,177.079C281.526,176.182 281.51,176.166 280.613,174.824L280.296,173.229L280.296,113.512L280.613,111.918C281.51,110.575 281.526,110.56 282.868,109.663L284.463,109.346L583.804,109.346C584.336,109.452 584.867,109.557 585.399,109.663C586.741,110.56 586.757,110.576 587.654,111.918L587.971,113.512L587.971,173.229L587.654,174.824C587.353,175.274 587.134,175.792 586.75,176.175C585.695,177.231 585.184,177.121 583.804,177.396L476.563,177.396L476.563,352.033L476.245,353.628C475.348,354.971 475.333,354.986 473.99,355.883L472.396,356.2ZM918.029,356.2L841.892,356.2L840.297,355.883C838.955,354.986 838.939,354.971 838.042,353.628L837.725,352.033L837.725,177.396L730.104,177.396C728.52,177.081 728.5,177.072 727.158,176.175L726.255,174.824L725.938,173.229L725.938,113.512C726.252,111.929 726.261,111.909 727.158,110.566L728.51,109.663L730.104,109.346L1029.45,109.346C1029.98,109.452 1030.51,109.557 1031.04,109.663C1032.38,110.56 1032.4,110.576 1033.3,111.918L1033.61,113.512L1033.61,173.229L1033.3,174.824C1032.4,176.166 1032.38,176.181 1031.04,177.079L1029.45,177.396L922.196,177.396L922.196,352.033C921.921,353.413 922.031,353.924 920.975,354.98C920.592,355.363 920.074,355.582 919.624,355.883L918.029,356.2ZM1457.45,356.2L1385.81,356.2L1384.21,355.883C1382.87,354.986 1382.86,354.97 1381.96,353.628L1381.64,352.033L1381.64,113.512L1381.96,111.918C1382.86,110.575 1382.87,110.56 1384.21,109.663L1385.81,109.346L1506.96,109.346C1507.55,109.475 1508.13,109.605 1508.72,109.734L1510.15,110.826L1653.59,280.917L1653.59,113.512L1653.91,111.918L1654.81,110.566L1656.16,109.663L1657.76,109.346L1729.41,109.346C1730.99,109.661 1731.01,109.669 1732.36,110.566L1733.26,111.918L1733.58,113.512L1733.58,352.033C1733.26,353.617 1733.25,353.637 1732.36,354.98L1731,355.883L1729.41,356.2L1608.25,356.2L1606.49,355.811L1605.06,354.716L1461.62,184.3L1461.62,352.033C1461.34,353.413 1461.45,353.924 1460.4,354.98C1460.01,355.363 1459.5,355.582 1459.04,355.883L1457.45,356.2ZM1062.08,356.2L977.304,356.2L975.605,355.838L974.201,354.814L973.337,353.307L973.162,351.579L973.708,349.929L1113.25,111.408C1114.87,109.493 1115.9,109.511 1116.85,109.346L1219.63,109.346C1220.11,109.43 1220.58,109.515 1221.06,109.599C1222.31,110.323 1222.32,110.333 1223.25,111.442L1359.79,349.963L1360.32,351.61L1360.13,353.33L1359.26,354.826L1357.86,355.841L1356.17,356.2L1272.15,356.2C1271.17,356.025 1270.1,356.029 1268.49,354.03L1246.05,312.933L1089.25,312.933L1065.69,354.103C1064.07,356.044 1063.03,356.031 1062.08,356.2ZM695.217,356.2L619.067,356.2C617.35,356.077 617.296,355.848 616.814,355.539C615.711,354.83 615.057,354.222 614.9,352.033L614.9,113.512C615.128,110.331 616.671,109.873 617.893,109.515C618.402,109.365 618.541,109.383 619.067,109.346L695.217,109.346C695.414,109.36 695.612,109.374 695.81,109.388C697.596,109.777 697.818,110.152 698.366,110.784C698.913,111.416 699.253,111.689 699.383,113.512L699.383,352.033C699.156,355.215 697.613,355.672 696.391,356.031C695.882,356.181 695.742,356.162 695.217,356.2ZM1120.63,255.246L1213.59,255.246L1167.11,173.446C1151.62,200.713 1136.12,227.979 1120.63,255.246Z" style="fill:rgb(39,38,54);fill-opacity:0.6;"/>
                </g>
                <g transform="matrix(0.24,0,0,0.24,0,0)">
                    <path d="M11.777,415.603L13.256,416.329L14.338,417.572C41.592,465.447 91.082,500 148.089,503.689C207.957,507.564 269.343,478.161 301.817,427.142C303.557,424.407 305.213,421.62 306.792,418.789L307.872,417.531L309.357,416.793L311.013,416.693L312.576,417.246L313.799,418.366L314.489,419.874L314.536,421.531C306.927,465.384 277.082,504.246 237.619,525.333C191.967,549.726 134.34,550.591 87.817,527.433C46.066,506.65 14.253,466.895 6.606,420.308L6.665,418.661L7.359,417.166L8.578,416.057L10.131,415.508C10.68,415.54 11.228,415.571 11.777,415.603Z" style="fill:rgb(39,38,54);fill-opacity:0.6;"/>
                </g>
            </g>
            <g transform="matrix(0.332069,0,0,0.332069,8.28628,74.1294)">
                <path d="M168.587,13.46C170.488,13.551 170.17,13.521 171.481,14.479C175.813,17.644 175.995,23.962 176.814,27.767C190.963,92.529 227.674,150.863 263.041,209.479C282.716,242.124 303.935,274.95 314.711,311.636C327.06,353.68 314.041,401.116 287.031,435.271C253.009,478.294 194.56,500.636 139.453,489.9C81.194,478.551 31.519,430.457 20.094,369.793C16.689,351.714 16.521,333.119 21.296,315.211C27.829,290.711 39.961,268.037 52.49,245.912C85.683,187.297 125.055,131.574 148.366,67.911C153.406,54.147 157.613,40.069 160.627,25.694C161.56,20.53 162.416,14.01 167.955,13.48C168.371,13.44 168.347,13.456 168.587,13.46ZM168.471,88.39C156.439,138.519 127.458,183.393 100.929,227.535C87.908,249.249 74.338,270.904 66.778,295.064C57.654,324.219 66.046,358.328 86.016,383.273C113.36,417.427 162.996,432.275 205.711,416.186C244.916,401.42 273.397,361.798 274.075,319.044C274.387,299.335 265.5,280.549 256.228,262.833C226.131,205.322 184.265,153.95 168.53,88.39C168.53,88.39 168.54,88.096 168.471,88.39Z" style="fill:rgb(78,245,177);"/>
            </g>
        </g>
    </g>
</svg>
