<?xml version="1.0" encoding="UTF-8" standalone="no"?><!DOCTYPE svg PUBLIC "-//W3C//DTD SVG 1.1//EN" "http://www.w3.org/Graphics/SVG/1.1/DTD/svg11.dtd"><svg width="100%" height="100%" viewBox="0 0 105 158" version="1.1" xmlns="http://www.w3.org/2000/svg" xmlns:xlink="http://www.w3.org/1999/xlink" xml:space="preserve" xmlns:serif="http://www.serif.com/" style="fill-rule:evenodd;clip-rule:evenodd;stroke-linejoin:round;stroke-miterlimit:1.41421;"><rect id="Artboard1" x="0" y="0" width="105" height="157.5" style="fill:none;"/><g><path d="M49.782,4.705c0,-0.009 0.001,-0.02 0.001,-0.001c0.404,-1.371 1.216,-2.617 2.717,-2.617c1.501,0 2.314,1.244 2.717,2.627c0,-0.016 0.001,-0.006 0.001,0.002c9.792,33.261 39.925,64.319 39.925,85.089c0,23.553 -19.095,42.642 -42.644,42.642c-23.552,0 -42.642,-19.089 -42.642,-42.642c0,-20.772 30.135,-51.835 39.925,-85.1Zm2.716,22.843l0.08,0.001l0.102,0.005l0.101,0.009l0.1,0.012l0.098,0.017l0.098,0.019l0.096,0.024l0.094,0.026l0.094,0.031l0.091,0.033l0.09,0.037l0.089,0.04l0.086,0.043l0.085,0.046l0.065,0.038l0.081,0.051l0.079,0.054l0.078,0.057l0.075,0.06l0.073,0.062l0.07,0.065l0.068,0.067l0.066,0.069l0.063,0.072l0.061,0.075l0.057,0.076l0.032,0.044c0.12,0.149 0.214,0.316 0.276,0.502l0.026,0.067l0.024,0.064l0.03,0.091l0.014,0.045l0.013,0.045c0.004,0.015 0.008,0.03 0.011,0.045c7.021,20.87 24.966,40.212 24.966,53.32c0,15.475 -12.328,28.02 -27.531,28.02c-15.204,0 -27.533,-12.545 -27.533,-28.02c0,-13.102 17.931,-32.434 24.959,-53.293c0,0 0.004,-0.016 0.004,-0.016l0.002,-0.008l0,-0.003l0.001,-0.002c0.002,-0.007 0.004,-0.015 0.006,-0.022l0,-0.002l0.001,-0.003l0.002,-0.008l0.004,-0.015l0,0l0,0c0.002,-0.008 0.005,-0.016 0.007,-0.024l0.001,-0.002l0,-0.002c0.002,-0.008 0.005,-0.015 0.007,-0.023l0,-0.001l0.001,-0.003l0.003,-0.008l0.004,-0.014l0,-0.001l0,0c0.003,-0.008 0.005,-0.016 0.008,-0.023l0,-0.003l0.001,-0.002c0.002,-0.007 0.005,-0.015 0.007,-0.022l0.001,-0.001l0,-0.003l0.003,-0.009l0.005,-0.013l0,-0.001l0,0c0.003,-0.008 0.006,-0.016 0.009,-0.023l0,-0.002l0.001,-0.002c0.003,-0.008 0.005,-0.015 0.008,-0.023l0,-0.001l0.001,-0.001c0.006,-0.016 0.012,-0.032 0.018,-0.048l0,-0.001l0.001,-0.001c0.003,-0.008 0.006,-0.016 0.009,-0.024l0,0l0,0c0.007,-0.016 0.014,-0.033 0.021,-0.049c0.075,-0.226 0.195,-0.424 0.351,-0.593c0.005,-0.007 0.01,-0.013 0.016,-0.02l0,-0.001l0.001,-0.001c0.01,-0.012 0.019,-0.023 0.029,-0.035l0,-0.001l0.002,-0.001c0.009,-0.012 0.019,-0.023 0.028,-0.034l0.001,-0.001l0.001,-0.002l0.005,-0.006l0.01,-0.01l0,0l0,0c0.005,-0.006 0.01,-0.011 0.015,-0.017l0,-0.001l0.002,-0.001l0.005,-0.006l0.009,-0.01l0,-0.001l0.001,0c0.004,-0.005 0.009,-0.011 0.014,-0.016l0.001,-0.001l0.002,-0.002l0.005,-0.005l0.009,-0.01l0.001,-0.001l0,0c0.005,-0.005 0.01,-0.01 0.015,-0.016l0.001,-0.001l0.001,-0.001l0.006,-0.006l0.009,-0.009l0.001,-0.001l0,0c0.005,-0.005 0.01,-0.011 0.015,-0.016l0.001,-0.001l0.002,-0.001l0.005,-0.006l0.009,-0.009l0.001,-0.001l0,0c0.006,-0.005 0.011,-0.01 0.016,-0.015l0.001,-0.001l0.002,-0.002l0.005,-0.005l0.009,-0.009l0.001,-0.001l0,0c0.006,-0.005 0.011,-0.01 0.016,-0.015l0.001,-0.001l0.002,-0.002l0.006,-0.005l0.009,-0.008l0.001,-0.001l0,-0.001c0.006,-0.005 0.011,-0.01 0.016,-0.014l0.001,-0.001l0.002,-0.002l0.006,-0.005l0.009,-0.008l0.001,-0.001l0.001,-0.001c0.005,-0.004 0.01,-0.009 0.016,-0.014l0.001,-0.001l0.002,-0.002l0.006,-0.005l0.008,-0.007l0.002,-0.002l0,0c0.006,-0.005 0.011,-0.009 0.017,-0.014l0.001,-0.001l0.002,-0.002l0.006,-0.005l0.009,-0.007l0.001,-0.001l0.001,-0.001c0.005,-0.004 0.011,-0.009 0.016,-0.013l0.002,-0.001l0.002,-0.002l0.006,-0.005l0.008,-0.007l0.002,-0.001l0.001,-0.001c0.005,-0.004 0.011,-0.009 0.017,-0.013l0.001,-0.001l0.002,-0.002l0.007,-0.005l0.008,-0.006l0.002,-0.002l0,0c0.006,-0.004 0.012,-0.009 0.017,-0.013l0.002,-0.001l0.002,-0.002l0.007,-0.005l0.008,-0.006l0.002,-0.001l0.001,-0.001c0.005,-0.004 0.011,-0.008 0.017,-0.012l0.001,-0.001l0.002,-0.002l0.007,-0.005l0.008,-0.006l0.002,-0.001l0.001,-0.001c0.006,-0.004 0.012,-0.008 0.017,-0.012l0.002,-0.001l0.002,-0.002l0.007,-0.005l0.008,-0.005l0.002,-0.002l0.001,0c0.006,-0.004 0.012,-0.008 0.018,-0.012l0.001,-0.001l0.002,-0.001l0.008,-0.006l0.008,-0.005l0.002,-0.001l0.001,-0.001c0.006,-0.004 0.012,-0.008 0.018,-0.012l0.001,0l0.002,-0.002l0.008,-0.005l0.008,-0.005l0.002,-0.001l0.001,-0.001c0.006,-0.004 0.012,-0.007 0.018,-0.011l0.001,-0.001l0.002,-0.001l0.008,-0.005l0.008,-0.005l0.002,-0.001l0.002,-0.001c0.006,-0.004 0.012,-0.007 0.018,-0.011l0.001,-0.001l0.002,-0.001l0.008,-0.005l0.008,-0.005l0.002,-0.001l0.002,-0.001c0.006,-0.003 0.012,-0.007 0.018,-0.01l0.001,-0.001l0.003,-0.001l0.008,-0.005l0.008,-0.004l0.002,-0.002l0.001,-0.001c0.006,-0.003 0.013,-0.006 0.019,-0.01l0.001,0l0.002,-0.002l0.009,-0.004l0.007,-0.004l0.003,-0.002l0.001,-0.001c0.007,-0.003 0.013,-0.006 0.019,-0.01l0.001,0l0.003,-0.001l0.008,-0.005l0.008,-0.004l0.002,-0.001l0.002,-0.001c0.006,-0.003 0.012,-0.006 0.019,-0.01l0.001,0l0.002,-0.001l0.009,-0.005l0.008,-0.003l0.002,-0.002l0.002,-0.001c0.006,-0.003 0.013,-0.006 0.019,-0.009l0.001,0l0.002,-0.001l0.01,-0.005l0.007,-0.003l0.003,-0.002l0.001,0c0.007,-0.003 0.013,-0.006 0.019,-0.009l0.001,-0.001l0.003,-0.001l0.009,-0.004l0.008,-0.003l0.002,-0.002l0.002,0c0.006,-0.003 0.013,-0.006 0.019,-0.009l0.001,0l0.003,-0.001l0.01,-0.005l0.007,-0.003l0.003,-0.001l0.001,-0.001c0.007,-0.002 0.013,-0.005 0.02,-0.008l0.001,0l0.002,-0.001l0.01,-0.004l0.007,-0.003l0.003,-0.001l0.002,-0.001c0.007,-0.003 0.013,-0.005 0.02,-0.008l0.001,0l0.002,-0.001l0.01,-0.004l0.007,-0.003l0.003,-0.001l0.002,-0.001c0.007,-0.002 0.013,-0.005 0.02,-0.007l0.001,-0.001l0.002,-0.001l0.011,-0.003l0.007,-0.003l0.003,-0.001l0.001,-0.001c0.007,-0.002 0.014,-0.005 0.021,-0.007l0,0l0.003,-0.001l0.01,-0.004l0.007,-0.002l0.003,-0.001l0.002,-0.001c0.007,-0.002 0.014,-0.004 0.021,-0.007l0,0l0.003,-0.001l0.011,-0.003l0.007,-0.002l0.002,-0.001l0.003,-0.001c0.006,-0.002 0.013,-0.004 0.02,-0.006l0.001,-0.001l0.002,0l0.011,-0.004l0.007,-0.002l0.003,-0.001l0.002,0c0.007,-0.002 0.014,-0.005 0.021,-0.007l0,0l0.003,0l0.011,-0.004l0.007,-0.002l0.003,0l0.002,-0.001c0.007,-0.002 0.014,-0.004 0.021,-0.006l0,0l0.003,-0.001l0.011,-0.003l0.007,-0.001l0.003,-0.001l0.002,-0.001c0.007,-0.002 0.014,-0.003 0.021,-0.005l0.001,0l0.002,-0.001l0.012,-0.003l0.007,-0.001l0.003,-0.001l0.002,-0.001c0.007,-0.001 0.014,-0.003 0.021,-0.005l0.001,0l0.002,0l0.012,-0.003l0.007,-0.001l0.003,-0.001l0.002,-0.001c0.007,-0.001 0.014,-0.003 0.021,-0.004l0.001,0l0.002,-0.001l0.012,-0.002l0.007,-0.002l0.003,0l0.002,-0.001c0.007,-0.001 0.014,-0.003 0.022,-0.004l0,0l0.002,0l0.013,-0.003l0.006,-0.001l0.003,-0.001l0.003,0c0.007,-0.001 0.014,-0.003 0.021,-0.004l0.001,0l0.002,0l0.013,-0.002l0.006,-0.002l0.003,0l0.003,0c0.007,-0.002 0.014,-0.003 0.021,-0.004l0.001,0l0.001,0l0.014,-0.002l0.007,-0.001l0.002,0l0.003,-0.001c0.007,-0.001 0.015,-0.002 0.022,-0.003l0,0l0.002,0l0.014,-0.002l0.006,-0.001l0.003,0l0.002,0c0.008,-0.001 0.015,-0.002 0.022,-0.003l0.001,0l0.001,0l0.015,-0.002l0.006,0l0.003,-0.001l0.002,0c0.008,-0.001 0.015,-0.002 0.022,-0.002l0.001,0l0.001,0l0.015,-0.002l0.006,0l0.003,-0.001l0.002,0c0.008,0 0.015,-0.001 0.023,-0.002l0,0l0.001,0l0.015,-0.001l0.006,0l0.003,0l0.003,-0.001c0.007,0 0.015,0 0.022,-0.001l0,0l0.001,0l0.016,-0.001l0.006,0l0.003,0l0.002,0c0.008,-0.001 0.015,-0.001 0.023,-0.001l0,0l0,0l0.017,-0.001l0.005,0l0.003,0l0.003,0c0.008,0 0.015,-0.001 0.023,-0.001l0,0l0,0l0.017,0l0.005,0l0.003,0l0.003,0l0.006,0l0.017,0Zm-2.582,2.057l-0.001,0.003l0.001,-0.006l0,0.003Zm0.004,-0.019l-0.001,0.004l0.001,-0.006l0,0.002Zm5.149,-0.027l0.001,0.001l-0.001,0l0,-0.001Zm-0.133,-0.4l0,0.002l0,0l0,-0.002Zm-0.02,-0.044l0.001,0.002l0,-0.001l-0.001,-0.001Zm-4.836,-0.001l0,0l0,0l0,0Zm4.816,-0.043l0.001,0.002l-0.001,-0.001l0,-0.001Zm-4.796,-0.001l0,0l0,0l0,0Zm4.775,-0.043l0.001,0.002l-0.001,-0.001l0,-0.001Zm-4.754,0l0,0l0,-0.001l0,0.001Zm4.732,-0.044l0.001,0.003l0,-0.001l-0.001,-0.002Zm-4.71,0.001l0,0l0,-0.001l0,0.001Zm4.687,-0.043l0.002,0.003l-0.001,-0.002l-0.001,-0.001Zm-4.665,0.001l0,0l0.001,-0.001l-0.001,0.001Zm4.642,-0.044l0.001,0.003l0,-0.001l-0.001,-0.002Zm-4.619,0.002l0,0l0.001,-0.001l-0.001,0.001Zm4.595,-0.044l0.001,0.004l0,-0.002l-0.001,-0.002Zm-4.571,0.002l0,0.001l0.001,-0.002l-0.001,0.001Zm4.546,-0.043l0.002,0.003l-0.001,-0.001l-0.001,-0.002Zm-4.521,0.002l-0.001,0.001l0.001,-0.002l0,0.001Zm4.495,-0.043l0.002,0.004l-0.001,-0.002l-0.001,-0.002Zm-4.47,0.003l0,0l0.001,-0.001l-0.001,0.001Zm0.026,-0.04l0,0l0.001,-0.001l-0.001,0.001Zm4.418,-0.003l0.002,0.003l-0.001,-0.002l-0.001,-0.001Zm-4.391,-0.037l-0.001,0.001l0.002,-0.002l-0.001,0.001Zm4.364,-0.003l0.002,0.003l-0.001,-0.001l-0.001,-0.002Zm-4.337,-0.036l0,0.001l0.001,-0.002l-0.001,0.001Zm0.028,-0.039l0,0.001l0.001,-0.002l-0.001,0.001Zm0.029,-0.038l-0.001,0.001l0.002,-0.002l-0.001,0.001Zm2.489,-21.083c-0.13,0.018 -0.259,0.027 -0.388,0.027c0.132,0 0.261,-0.009 0.388,-0.027Zm-0.787,-0.002c0.13,0.019 0.263,0.029 0.399,0.029c-0.132,0 -0.266,-0.01 -0.399,-0.029Zm3.117,-2.78l-0.001,-0.002c0.001,0.015 0.001,0.009 0.001,0.002Zm-5.436,-0.011c0,0.008 0,0.014 0.001,-0.001l-0.001,0.001Z" style="fill:#00faab;"/><path d="M100.516,112.773c2.247,0.487 1.442,2.287 1.155,3.621c-4.714,20.714 -23.998,37.161 -45.298,38.872c-23.823,1.915 -48.083,-15.188 -53.324,-38.872c-0.578,-2.612 1.519,-5.988 3.49,-1.42c8.021,18.026 28.873,29.38 49.295,28.01c18.175,-1.219 35.988,-12.314 42.82,-29.138c0,0 0.413,-1.169 1.862,-1.073Z" style="fill:#fff;"/></g></svg>